<mxfile host="app.diagrams.net" agent="Mozilla/5.0 (Windows NT 10.0; Win64; x64) AppleWebKit/537.36 (KHTML, like Gecko) Chrome/132.0.0.0 Safari/537.36" version="26.0.10">
  <diagram name="Página-1" id="-e6m7duJrL8ZE6NtD4uk">
    <mxGraphModel dx="1858" dy="1123" grid="1" gridSize="10" guides="1" tooltips="1" connect="1" arrows="1" fold="1" page="1" pageScale="1" pageWidth="827" pageHeight="1169" math="0" shadow="0">
      <root>
        <mxCell id="0" />
        <mxCell id="1" parent="0" />
        <mxCell id="9LH2jO65YWDsSugHY2GV-5" style="edgeStyle=orthogonalEdgeStyle;rounded=0;orthogonalLoop=1;jettySize=auto;html=1;entryX=0;entryY=0.75;entryDx=0;entryDy=0;" edge="1" parent="1" source="9LH2jO65YWDsSugHY2GV-1" target="9LH2jO65YWDsSugHY2GV-3">
          <mxGeometry relative="1" as="geometry" />
        </mxCell>
        <mxCell id="9LH2jO65YWDsSugHY2GV-1" value="Crear repositorio&amp;nbsp;&lt;div&gt;github&lt;/div&gt;" style="rounded=0;whiteSpace=wrap;html=1;" vertex="1" parent="1">
          <mxGeometry x="180" y="40" width="120" height="60" as="geometry" />
        </mxCell>
        <mxCell id="9LH2jO65YWDsSugHY2GV-2" value="Cresar reposito&lt;div&gt;local&lt;/div&gt;" style="rounded=0;whiteSpace=wrap;html=1;" vertex="1" parent="1">
          <mxGeometry x="430" y="40" width="120" height="60" as="geometry" />
        </mxCell>
        <mxCell id="9LH2jO65YWDsSugHY2GV-9" style="edgeStyle=orthogonalEdgeStyle;rounded=0;orthogonalLoop=1;jettySize=auto;html=1;" edge="1" parent="1" source="9LH2jO65YWDsSugHY2GV-3" target="9LH2jO65YWDsSugHY2GV-8">
          <mxGeometry relative="1" as="geometry" />
        </mxCell>
        <mxCell id="9LH2jO65YWDsSugHY2GV-3" value="unirlos" style="rounded=0;whiteSpace=wrap;html=1;" vertex="1" parent="1">
          <mxGeometry x="300" y="180" width="120" height="60" as="geometry" />
        </mxCell>
        <mxCell id="9LH2jO65YWDsSugHY2GV-7" style="edgeStyle=orthogonalEdgeStyle;rounded=0;orthogonalLoop=1;jettySize=auto;html=1;entryX=1.003;entryY=0.631;entryDx=0;entryDy=0;entryPerimeter=0;" edge="1" parent="1" source="9LH2jO65YWDsSugHY2GV-2" target="9LH2jO65YWDsSugHY2GV-3">
          <mxGeometry relative="1" as="geometry">
            <Array as="points">
              <mxPoint x="490" y="218" />
            </Array>
          </mxGeometry>
        </mxCell>
        <mxCell id="9LH2jO65YWDsSugHY2GV-11" style="edgeStyle=orthogonalEdgeStyle;rounded=0;orthogonalLoop=1;jettySize=auto;html=1;entryX=0.5;entryY=0;entryDx=0;entryDy=0;" edge="1" parent="1" source="9LH2jO65YWDsSugHY2GV-8" target="9LH2jO65YWDsSugHY2GV-10">
          <mxGeometry relative="1" as="geometry" />
        </mxCell>
        <mxCell id="9LH2jO65YWDsSugHY2GV-8" value="crear ramas" style="rounded=0;whiteSpace=wrap;html=1;" vertex="1" parent="1">
          <mxGeometry x="300" y="310" width="120" height="60" as="geometry" />
        </mxCell>
        <mxCell id="9LH2jO65YWDsSugHY2GV-13" style="edgeStyle=orthogonalEdgeStyle;rounded=0;orthogonalLoop=1;jettySize=auto;html=1;entryX=0.5;entryY=0;entryDx=0;entryDy=0;" edge="1" parent="1" source="9LH2jO65YWDsSugHY2GV-10" target="9LH2jO65YWDsSugHY2GV-12">
          <mxGeometry relative="1" as="geometry" />
        </mxCell>
        <mxCell id="9LH2jO65YWDsSugHY2GV-10" value="modificarlas" style="rounded=0;whiteSpace=wrap;html=1;" vertex="1" parent="1">
          <mxGeometry x="300" y="420" width="120" height="60" as="geometry" />
        </mxCell>
        <mxCell id="9LH2jO65YWDsSugHY2GV-15" style="edgeStyle=orthogonalEdgeStyle;rounded=0;orthogonalLoop=1;jettySize=auto;html=1;" edge="1" parent="1" source="9LH2jO65YWDsSugHY2GV-12" target="9LH2jO65YWDsSugHY2GV-14">
          <mxGeometry relative="1" as="geometry" />
        </mxCell>
        <mxCell id="9LH2jO65YWDsSugHY2GV-12" value="hacer commit" style="rounded=0;whiteSpace=wrap;html=1;" vertex="1" parent="1">
          <mxGeometry x="300" y="530" width="120" height="55" as="geometry" />
        </mxCell>
        <mxCell id="9LH2jO65YWDsSugHY2GV-17" style="edgeStyle=orthogonalEdgeStyle;rounded=0;orthogonalLoop=1;jettySize=auto;html=1;" edge="1" parent="1" source="9LH2jO65YWDsSugHY2GV-14" target="9LH2jO65YWDsSugHY2GV-16">
          <mxGeometry relative="1" as="geometry" />
        </mxCell>
        <mxCell id="9LH2jO65YWDsSugHY2GV-14" value="subirlo a gituhb" style="rounded=0;whiteSpace=wrap;html=1;" vertex="1" parent="1">
          <mxGeometry x="300" y="610" width="120" height="60" as="geometry" />
        </mxCell>
        <mxCell id="9LH2jO65YWDsSugHY2GV-19" style="edgeStyle=orthogonalEdgeStyle;rounded=0;orthogonalLoop=1;jettySize=auto;html=1;entryX=0.5;entryY=0;entryDx=0;entryDy=0;" edge="1" parent="1" source="9LH2jO65YWDsSugHY2GV-16" target="9LH2jO65YWDsSugHY2GV-18">
          <mxGeometry relative="1" as="geometry" />
        </mxCell>
        <mxCell id="9LH2jO65YWDsSugHY2GV-16" value="full resquest&amp;nbsp;&lt;div&gt;compañero&lt;/div&gt;" style="rounded=0;whiteSpace=wrap;html=1;" vertex="1" parent="1">
          <mxGeometry x="300" y="700" width="120" height="60" as="geometry" />
        </mxCell>
        <mxCell id="9LH2jO65YWDsSugHY2GV-22" style="edgeStyle=orthogonalEdgeStyle;rounded=0;orthogonalLoop=1;jettySize=auto;html=1;" edge="1" parent="1" source="9LH2jO65YWDsSugHY2GV-18" target="9LH2jO65YWDsSugHY2GV-20">
          <mxGeometry relative="1" as="geometry" />
        </mxCell>
        <mxCell id="9LH2jO65YWDsSugHY2GV-18" value="revisar nuestro&lt;div&gt;full request&amp;nbsp;&lt;/div&gt;" style="rounded=0;whiteSpace=wrap;html=1;" vertex="1" parent="1">
          <mxGeometry x="300" y="800" width="120" height="60" as="geometry" />
        </mxCell>
        <mxCell id="9LH2jO65YWDsSugHY2GV-24" style="edgeStyle=orthogonalEdgeStyle;rounded=0;orthogonalLoop=1;jettySize=auto;html=1;" edge="1" parent="1" source="9LH2jO65YWDsSugHY2GV-20" target="9LH2jO65YWDsSugHY2GV-23">
          <mxGeometry relative="1" as="geometry" />
        </mxCell>
        <mxCell id="9LH2jO65YWDsSugHY2GV-20" value="merge&lt;div&gt;main&lt;/div&gt;&lt;div&gt;desarrolo&lt;/div&gt;" style="rounded=0;whiteSpace=wrap;html=1;" vertex="1" parent="1">
          <mxGeometry x="300" y="910" width="120" height="60" as="geometry" />
        </mxCell>
        <mxCell id="9LH2jO65YWDsSugHY2GV-23" value="push desde main" style="rounded=0;whiteSpace=wrap;html=1;" vertex="1" parent="1">
          <mxGeometry x="300" y="1010" width="120" height="60" as="geometry" />
        </mxCell>
      </root>
    </mxGraphModel>
  </diagram>
</mxfile>
